<?xml version="1.0" encoding="utf-8"?>
<!-- Generator: Adobe Illustrator 16.0.4, SVG Export Plug-In . SVG Version: 6.00 Build 0)  -->
<!DOCTYPE svg PUBLIC "-//W3C//DTD SVG 1.1//EN" "http://www.w3.org/Graphics/SVG/1.1/DTD/svg11.dtd">
<svg version="1.1" id="Layer_1" xmlns="http://www.w3.org/2000/svg" xmlns:xlink="http://www.w3.org/1999/xlink" x="0px" y="0px"
	 width="200px" height="26px" viewBox="0 0 200 26" enable-background="new 0 0 200 26" xml:space="preserve">
<path fill="#074A73" d="M1.402,23.22c1.273-4.045,5.754-10.278,10.458-13.025c3.274-1.913,5.548-1.468,6.719-0.949
	c0.597,0.271,0.475,0.689-0.082,0.911c-1.064,0.415-2.81,1.322-2.717,1.958c0.029,0.197,0.232,0.234,0.505,0.283
	c1.06,0.187,4.098,0.373,6.876-0.319c2.427-0.604,4.852-2.117,6.117-2.987c0.558-0.387,0.822-0.194,0.617,0.541
	c-0.863,3.07-4.166,11.062-15.166,11.229c-7.282,0.11-11.11,1.938-12.71,2.985C1.37,24.265,1.249,23.703,1.402,23.22"/>
<path fill="#3AA7DF" d="M1.359,17.508c-0.729-1.631-1.425-4.944,1.535-9.493C5.148,4.544,6.03,2.38,6.36,1.103
	C6.661-0.06,6.917,0.01,7.412,0.861c1.271,2.204,3.092,7.09-0.528,11.281c-2.496,2.891-3.685,4.762-4.288,5.622
	C2.101,18.479,1.689,18.254,1.359,17.508"/>
<polygon fill="#074A73" points="33.733,10.438 41.204,10.438 41.204,11.385 38.006,11.385 38.006,21.169 36.946,21.169 
	36.946,11.385 33.733,11.385 "/>
<polygon fill="#074A73" points="49.057,10.438 50.137,10.438 50.137,21.169 49.057,21.169 49.057,16.111 43.502,16.111 
	43.502,21.169 42.408,21.169 42.408,10.438 43.502,10.438 43.502,15.162 49.057,15.162 "/>
<polygon fill="#074A73" points="58.731,21.169 52.446,21.169 52.446,10.439 58.557,10.439 58.557,11.384 53.539,11.384 
	53.539,15.162 58.282,15.162 58.282,16.111 53.539,16.111 53.539,20.222 58.731,20.222 "/>
<path fill="#074A73" d="M151.013,20.449c0.687,0,1.438-0.082,2.269-0.223l0.112,0.878c-0.755,0.188-1.786,0.267-2.524,0.267
	c-3.418,0-4.635-2.439-4.635-5.62c0-4.341,2.288-5.491,4.583-5.491c0.864,0,1.854,0.112,2.64,0.365l-0.194,0.863
	c-0.826-0.239-1.655-0.316-2.394-0.316c-1.979,0-3.451,1.018-3.451,4.566C147.418,19.443,148.792,20.449,151.013,20.449"/>
<polygon fill="#074A73" points="161.597,10.483 162.671,10.483 162.671,21.148 161.597,21.148 161.597,16.121 156.07,16.121 
	156.07,21.148 154.985,21.148 154.985,10.483 156.07,10.483 156.07,15.179 161.597,15.179 "/>
<path fill="#074A73" d="M168.724,21.371c-2.606,0-3.836-1.271-3.836-4.067v-6.82h1.068v6.581c0,2.111,0.498,3.351,2.797,3.351
	c2.129,0,2.766-1.005,2.766-3.351v-6.581h1.067v6.82C172.586,20.065,171.471,21.353,168.724,21.371"/>
<path fill="#074A73" d="M177.839,16.951h-0.332c-0.545,0-1.086-0.049-1.617-0.131v4.33h-1.083V10.674
	c0.784-0.111,1.645-0.21,2.62-0.21c2.109,0,4.229,0.397,4.229,3.13c0,1.983-1.165,2.895-2.65,3.212l3.164,4.343h-1.344
	L177.839,16.951z M175.89,15.926c0.482,0.1,1.056,0.178,1.651,0.178c1.479,0,3.015-0.496,3.015-2.426
	c0-2.061-1.517-2.351-3.129-2.351c-0.543,0-1.023,0.049-1.537,0.113V15.926z"/>
<path fill="#074A73" d="M187.823,20.449c0.686,0,1.436-0.082,2.271-0.223l0.11,0.878c-0.751,0.188-1.792,0.267-2.525,0.267
	c-3.419,0-4.629-2.439-4.629-5.62c0-4.341,2.281-5.491,4.58-5.491c0.865,0,1.854,0.112,2.637,0.365l-0.193,0.863
	c-0.829-0.239-1.661-0.316-2.395-0.316c-1.978,0-3.45,1.018-3.45,4.566C184.229,19.443,185.603,20.449,187.823,20.449"/>
<polygon fill="#074A73" points="198.412,10.483 199.481,10.483 199.481,21.148 198.412,21.148 198.412,16.121 192.886,16.121 
	192.886,21.148 191.799,21.148 191.799,10.483 192.886,10.483 192.886,15.179 198.412,15.179 "/>
<path fill="#074A73" d="M81.403,16.173v0.274c0,1.885,1.277,2.701,3.016,2.701c0.985,0,2.201-0.147,3.085-0.438l0.23,2.181
	c-1.241,0.357-2.515,0.565-3.692,0.565c-3.059,0-5.514-1.467-5.514-5.936c0-2.764,1.448-5.297,5.072-5.297
	c3.23,0,4.445,1.778,4.445,4.083c0,0.588-0.084,1.214-0.228,1.866H81.403z M83.691,12.297c-1.847,0-2.183,1.551-2.206,2.181h4.108
	C85.593,13.219,85.007,12.297,83.691,12.297"/>
<path fill="#074A73" d="M96.281,12.886c-0.464-0.197-1.734-0.439-2.785-0.402c-0.901,0.034-1.645,0.271-1.62,0.982
	c0.028,0.735,1.088,1.115,2.152,1.473c1.36,0.455,3.038,0.955,3.109,2.819c0.087,2.238-1.294,3.572-4.371,3.69
	c-1.404,0.052-3.006-0.223-3.689-0.534l0.378-2.192c0.528,0.144,2.077,0.55,3.289,0.502c0.902-0.035,1.605-0.249,1.578-1.044
	c-0.029-0.733-0.901-1.06-1.901-1.438c-1.552-0.595-3.274-1.2-3.344-3.062c-0.089-2.347,1.55-3.395,4.165-3.492
	c1.534-0.058,2.566,0.196,3.376,0.48L96.281,12.886z"/>
<path fill="#074A73" d="M103.702,20.974c-0.923,0.399-1.803,0.461-2.157,0.461c-3.229,0-3.337-1.888-3.337-3.649V6.494h3.021v11.464
	c0,0.774,0.166,1.109,0.84,1.109c0.271,0,0.752,0,1.336-0.148L103.702,20.974z"/>
<path fill="#074A73" d="M106.449,16.173v0.274c0,1.885,1.278,2.701,3.019,2.701c0.984,0,2.199-0.147,3.079-0.438l0.23,2.181
	c-1.232,0.357-2.515,0.565-3.687,0.565c-3.058,0-5.513-1.467-5.513-5.936c0-2.764,1.443-5.297,5.073-5.297
	c3.226,0,4.442,1.778,4.442,4.083c0,0.588-0.086,1.214-0.231,1.866H106.449z M108.73,12.297c-1.844,0-2.181,1.551-2.195,2.181h4.11
	C110.646,13.219,110.051,12.297,108.73,12.297"/>
<path fill="#074A73" d="M116.332,21.166l-3.483-10.754h2.877l2.491,8.383l2.221-8.383h2.893l-3.185,9.916
	c-1.302,4.043-2.639,5.448-5.179,5.448c-0.525,0-1.338-0.064-2.011-0.312l0.311-2.097c0.423,0.164,0.82,0.188,1.199,0.188
	c1.505,0,2.534-0.968,2.805-2.389H116.332z"/>
<path fill="#074A73" d="M132.183,20.638c-0.921,0.443-2.768,0.858-4.554,0.858c-2.407,0-4.753-0.69-4.753-3.207
	c0-2.451,1.99-3.289,4.127-3.289c0.755,0,1.533,0.106,2.242,0.271v-0.964c0-1.422-0.835-1.72-2.111-1.72
	c-0.991,0-1.974,0.188-2.667,0.4l-0.541-2.012c1.274-0.42,2.78-0.775,4.167-0.775c2.223,0,4.09,0.922,4.09,4.066V20.638z
	 M127.699,19.696c0.542,0,1.107-0.087,1.546-0.274v-2.594c-0.563-0.174-1.087-0.256-1.568-0.256c-1.173,0-2.013,0.462-2.013,1.635
	C125.664,19.38,126.665,19.696,127.699,19.696"/>
<path fill="#074A73" d="M133.447,11.414c0.942-0.417,3.247-1.236,5.507-1.236c2.186,0,4.216,0.61,4.216,3.753v7.234h-2.909v-6.983
	c0-1.425-0.774-1.824-1.763-1.824c-0.714,0-1.591,0.151-2.136,0.459v8.349h-2.915V11.414z"/>
<polygon fill="#074A73" points="78.607,10.457 75.753,10.457 75.721,10.457 73.648,17.294 71.56,10.457 71.549,10.457 
	71.542,10.457 68.693,10.457 68.661,10.457 66.585,17.294 64.5,10.457 64.481,10.457 61.627,10.457 65.22,21.173 65.218,21.179 
	65.222,21.179 67.951,21.179 67.955,21.179 67.951,21.177 70.119,14.722 72.281,21.177 72.281,21.179 72.286,21.179 75.014,21.179 
	75.018,21.179 75.014,21.173 "/>
</svg>
